<svg width="50" height="50" viewBox="0 0 50 50" fill="none" xmlns="http://www.w3.org/2000/svg">
<path d="M25 27.0833C24.3657 27.0759 23.7444 27.263 23.2197 27.6194C22.6949 27.9758 22.292 28.4844 22.065 29.0767C21.8381 29.669 21.798 30.3166 21.9503 30.9324C22.1026 31.5482 22.4398 32.1025 22.9167 32.5208V35.4167C22.9167 35.9692 23.1362 36.4991 23.5269 36.8898C23.9176 37.2805 24.4475 37.5 25 37.5C25.5525 37.5 26.0824 37.2805 26.4731 36.8898C26.8638 36.4991 27.0833 35.9692 27.0833 35.4167V32.5208C27.5602 32.1025 27.8974 31.5482 28.0497 30.9324C28.2019 30.3166 28.1619 29.669 27.935 29.0767C27.708 28.4844 27.3051 27.9758 26.7803 27.6194C26.2556 27.263 25.6343 27.0759 25 27.0833V27.0833ZM35.4167 18.75V14.5833C35.4167 11.8207 34.3192 9.17115 32.3657 7.21764C30.4122 5.26414 27.7627 4.16667 25 4.16667C22.2373 4.16667 19.5878 5.26414 17.6343 7.21764C15.6808 9.17115 14.5833 11.8207 14.5833 14.5833V18.75C12.9257 18.75 11.336 19.4085 10.1639 20.5806C8.99181 21.7527 8.33333 23.3424 8.33333 25V39.5833C8.33333 41.2409 8.99181 42.8306 10.1639 44.0028C11.336 45.1749 12.9257 45.8333 14.5833 45.8333H35.4167C37.0743 45.8333 38.664 45.1749 39.8361 44.0028C41.0082 42.8306 41.6667 41.2409 41.6667 39.5833V25C41.6667 23.3424 41.0082 21.7527 39.8361 20.5806C38.664 19.4085 37.0743 18.75 35.4167 18.75ZM18.75 14.5833C18.75 12.9257 19.4085 11.336 20.5806 10.1639C21.7527 8.99182 23.3424 8.33334 25 8.33334C26.6576 8.33334 28.2473 8.99182 29.4194 10.1639C30.5915 11.336 31.25 12.9257 31.25 14.5833V18.75H18.75V14.5833ZM37.5 39.5833C37.5 40.1359 37.2805 40.6658 36.8898 41.0565C36.4991 41.4472 35.9692 41.6667 35.4167 41.6667H14.5833C14.0308 41.6667 13.5009 41.4472 13.1102 41.0565C12.7195 40.6658 12.5 40.1359 12.5 39.5833V25C12.5 24.4475 12.7195 23.9176 13.1102 23.5269C13.5009 23.1362 14.0308 22.9167 14.5833 22.9167H35.4167C35.9692 22.9167 36.4991 23.1362 36.8898 23.5269C37.2805 23.9176 37.5 24.4475 37.5 25V39.5833Z" fill="#FF5C00"/>
</svg>
